<?xml version="1.0" encoding="UTF-8"?>
<svg id="Layer_2" data-name="Layer 2" xmlns="http://www.w3.org/2000/svg" viewBox="0 0 199.49 47.52">
  <defs>
    <style>
      .cls-1 {
        fill: #e8c6a9;
      }
    </style>
  </defs>
  <g id="Layout">
    <g>
      <g>
        <path class="cls-1" d="m116.09,42.99c-.17.01-.3.04-.37.08s-.14.12-.19.22c-.05.1-.11.29-.18.56l-.99,3.67h-.49l-1.22-3.43-1.14,3.43h-.48l-1.1-3.77c-.07-.23-.13-.39-.18-.5-.06-.11-.12-.18-.19-.21-.07-.03-.18-.05-.31-.05v-.32h2.06v.32c-.16,0-.28.01-.36.04-.07.03-.11.09-.11.21,0,.08.03.2.08.38l.7,2.38,1.12-3.33h.46l1.18,3.33.6-2.24c.04-.15.06-.27.06-.37,0-.17-.05-.28-.16-.33-.11-.05-.24-.07-.41-.08v-.32h1.63v.32Z"/>
        <path class="cls-1" d="m120.64,45.87l-.04,1.57h-4.25v-.32c.29,0,.48-.04.57-.13.08-.08.13-.23.13-.44v-3c0-.14-.01-.24-.04-.32-.03-.08-.09-.14-.19-.18-.1-.04-.25-.07-.46-.07v-.32h3.96l.06,1.24h-.32c-.07-.27-.16-.47-.25-.59-.09-.12-.2-.19-.32-.22-.12-.03-.3-.04-.53-.04h-.89v1.68h.49c.17,0,.29-.01.37-.04.08-.03.14-.09.17-.17.03-.08.06-.21.07-.39h.34v1.59h-.32c0-.18-.03-.31-.07-.39-.04-.08-.1-.14-.18-.17-.08-.03-.2-.04-.37-.04h-.49v1.12c0,.19,0,.32.01.41,0,.09.03.16.08.22.04.06.11.1.2.12.09.03.22.04.4.04h.38c.16,0,.32-.02.46-.06.15-.04.29-.15.43-.32.14-.17.24-.44.3-.8h.33Z"/>
        <path class="cls-1" d="m125.36,45.84l-.03,1.59h-4.25v-.32c.29,0,.48-.04.57-.13.08-.08.13-.23.13-.44v-3c0-.14-.01-.25-.04-.32-.03-.08-.09-.14-.2-.18-.1-.04-.25-.06-.46-.06v-.32h2.4v.32c-.2,0-.35.02-.45.06-.1.04-.17.1-.2.17-.03.08-.05.19-.05.33v2.74c0,.22.01.37.03.46.02.09.08.16.17.21.09.05.25.07.46.07.27,0,.51-.02.71-.06.2-.04.39-.15.56-.33.17-.18.28-.45.32-.81h.32Z"/>
        <path class="cls-1" d="m130.01,45.84l-.03,1.59h-4.25v-.32c.29,0,.48-.04.57-.13.08-.08.13-.23.13-.44v-3c0-.14-.01-.25-.04-.32-.03-.08-.09-.14-.2-.18-.1-.04-.25-.06-.46-.06v-.32h2.4v.32c-.2,0-.35.02-.45.06-.1.04-.17.1-.2.17-.03.08-.05.19-.05.33v2.74c0,.22.01.37.03.46.02.09.08.16.17.21.09.05.25.07.46.07.27,0,.51-.02.71-.06.2-.04.39-.15.56-.33.17-.18.28-.45.32-.81h.32Z"/>
        <path class="cls-1" d="m135.57,42.99c-.23,0-.39.02-.49.07-.1.05-.16.11-.18.2-.02.09-.04.23-.04.44v3.78h-.32l-3.12-3.71v2.63c0,.2.01.34.04.43.02.09.09.16.19.21.1.05.26.07.49.07v.32h-1.77v-.32c.21,0,.36-.02.46-.07.09-.05.15-.12.18-.21.02-.09.03-.23.03-.43v-2.43c0-.2,0-.34-.02-.44-.01-.1-.04-.18-.08-.26-.04-.07-.1-.13-.2-.18s-.22-.08-.37-.09v-.32h1.39l2.71,3.21v-2.18c0-.18-.01-.31-.04-.41-.02-.1-.09-.17-.18-.22-.1-.05-.25-.08-.46-.08v-.32h1.78v.32Z"/>
        <path class="cls-1" d="m140.14,45.87l-.04,1.57h-4.25v-.32c.29,0,.48-.04.57-.13.08-.08.13-.23.13-.44v-3c0-.14-.01-.24-.04-.32-.03-.08-.09-.14-.19-.18-.1-.04-.25-.07-.46-.07v-.32h3.96l.06,1.24h-.32c-.07-.27-.16-.47-.25-.59-.09-.12-.2-.19-.32-.22-.12-.03-.3-.04-.53-.04h-.89v1.68h.49c.17,0,.29-.01.37-.04.08-.03.14-.09.17-.17.03-.08.06-.21.07-.39h.34v1.59h-.32c0-.18-.03-.31-.07-.39-.04-.08-.1-.14-.18-.17-.08-.03-.2-.04-.37-.04h-.49v1.12c0,.19,0,.32.01.41,0,.09.03.16.08.22.04.06.11.1.2.12.09.03.22.04.4.04h.38c.16,0,.32-.02.46-.06.15-.04.29-.15.43-.32.14-.17.24-.44.3-.8h.33Z"/>
        <path class="cls-1" d="m144.22,46.07c0,.15-.03.3-.09.47s-.16.32-.29.47c-.13.15-.29.27-.48.37-.19.09-.42.14-.68.14s-.5-.05-.75-.17c-.25-.11-.46-.27-.63-.49-.07.17-.12.33-.14.48h-.32v-1.63h.32c.06.23.14.45.24.66.1.21.25.38.44.53.19.15.42.22.69.22.24,0,.43-.07.57-.2.14-.13.22-.3.22-.5,0-.11-.02-.21-.07-.3-.04-.08-.11-.16-.19-.23s-.2-.14-.35-.21c-.15-.08-.31-.16-.5-.24-.29-.14-.52-.27-.71-.41-.19-.14-.33-.27-.42-.4-.09-.13-.16-.25-.2-.37-.04-.12-.05-.24-.05-.36,0-.21.06-.42.17-.63.11-.21.28-.38.5-.51.22-.13.48-.2.77-.2.22,0,.43.05.64.15.2.1.38.24.52.41.04-.1.08-.24.12-.41h.33v1.33h-.33c-.23-.72-.64-1.09-1.22-1.09-.21,0-.38.06-.51.17-.13.11-.19.25-.19.43,0,.14.04.26.12.36.08.1.18.19.31.26.13.07.34.18.63.31.35.17.63.31.82.43.2.12.37.28.5.46.14.19.21.41.21.67Z"/>
        <path class="cls-1" d="m148.35,46.07c0,.15-.03.3-.09.47s-.16.32-.29.47-.29.27-.48.37c-.19.09-.42.14-.68.14s-.5-.05-.75-.17c-.25-.11-.46-.27-.63-.49-.07.17-.12.33-.14.48h-.32v-1.63h.32c.06.23.14.45.24.66.1.21.25.38.44.53.19.15.42.22.69.22.24,0,.43-.07.57-.2.14-.13.22-.3.22-.5,0-.11-.02-.21-.07-.3-.04-.08-.11-.16-.19-.23-.08-.07-.2-.14-.35-.21-.15-.08-.31-.16-.5-.24-.29-.14-.52-.27-.71-.41-.19-.14-.33-.27-.42-.4-.09-.13-.16-.25-.2-.37-.04-.12-.05-.24-.05-.36,0-.21.06-.42.17-.63.11-.21.28-.38.5-.51.22-.13.48-.2.77-.2.22,0,.43.05.64.15.2.1.38.24.52.41.04-.1.08-.24.12-.41h.33v1.33h-.33c-.23-.72-.64-1.09-1.22-1.09-.21,0-.38.06-.51.17-.13.11-.19.25-.19.43,0,.14.04.26.12.36.08.1.18.19.31.26.13.07.34.18.63.31.35.17.63.31.82.43.2.12.37.28.5.46.14.19.21.41.21.67Z"/>
      </g>
      <path class="cls-1" d="m199.49,25.39c0-.18-.14-.32-.32-.32-.13,0-.24.08-.29.19h0c-.8,1.38-1.5,2.64-2.25,3.61-.75.98-1.34,1.53-2.14,2.09-.86.6-1.68.97-2.54,1.33-.86.37-1.81.62-2.83.74-.93.13-1.82.21-2.66.24s-1.54.05-2.09.05h-4.56c-.8,0-1.44-.65-1.44-1.44,0,0,0,0,0,0v-5.24c-.01-.35,0-4.49.03-6.76h0c0-.8.65-1.45,1.44-1.45h0c.29,0,.56,0,.8,0,.32,0,.64,0,.96.02.32.02.72.04,1.2.07.96.07,1.8.24,2.52.53.72.29,1.34.65,1.85,1.1,1.47,1.3,2.63,3.57,2.76,5.62,0,.18.14.32.32.32s.32-.14.32-.32V9.7c0-.18-.14-.32-.32-.32s-.32.14-.32.32c-.01.83-.34,1.7-.58,2.42-.24.72-.56,1.35-.96,1.9-.4.54-.92,1.01-1.56,1.39-.64.38-1.44.69-2.4.91-.42.1-.94.17-1.56.22-.62.05-1.25.09-1.87.12-.41.02-.78.03-1.13.04h0s-.02,0-.03,0c-.8,0-1.44-.65-1.44-1.44,0,0,0,0,0-.01.03-2.74.09-8.65.13-11.61h0c0-.8.65-1.44,1.44-1.44,0,0,0,0,0,0h2.24c2.11,0,3.91.09,5.38.29,5.64.77,7.87,2.96,10.23,6.22h0c.06.08.15.14.26.14.18,0,.32-.14.32-.32,0-.04,0-.08-.02-.11h0s0-.01,0-.01c0,0,0,0,0,0l-2.84-6.86s0-.01-.02-.04c-.2-.56-.72-.97-1.35-1-.05,0-.07,0-.07,0h-31.34c-.18,0-.32.14-.32.32s.14.32.32.32c1.54.07,2.7.45,3.48,1.01.78.56,1.34,1.29,1.66,2.18.13.32.22.74.29,1.27.06.53.11,1.1.14,1.7.03.61.06,1.25.07,1.92.02.67.02,1.33.02,1.97v8.16c0,1.09-.04,2.2-.12,3.34-.08,1.14-.24,2.25-.48,3.34-.24,1.09-.61,2.11-1.1,3.07-.5.96-1.17,1.81-2.02,2.54-.85.74-1.9,1.31-3.17,1.73-1.26.42-2.81.62-4.63.62-1.6,0-3.02-.26-4.27-.79-1.25-.53-2.3-1.28-3.17-2.26-.86-.98-1.54-2.16-2.02-3.55-.48-1.39-.74-2.94-.77-4.63,0-.77,0-1.49-.02-2.18-.02-.69-.02-1.4-.02-2.14v-9.55c0-.61,0-1.23.02-1.87.02-.64.04-1.38.07-2.21.03-.74.19-1.34.48-1.82.29-.48.64-.8,1.05-1.07.42-.27.86-.42,1.38-.55.51-.13.99-.2,1.46-.23.18,0,.32-.14.32-.32s-.14-.32-.32-.32h-14.31c-.18,0-.32.14-.32.32s.14.32.32.32c.83.1,1.59.12,2.24.36.66.24,1.2.61,1.65,1.15.19.22.34.54.43.94.1.4.17.85.22,1.34.05.5.07,1.03.07,1.61v8.11c0,.23,0,.45,0,.67-.18-1.51-.53-2.99-1.07-4.41-.8-2.11-1.95-3.98-3.46-5.59-1.5-1.62-3.34-2.9-5.5-3.86-2.16-.96-4.6-1.44-7.32-1.44-2.3,0-4.5.35-6.6,1.06-2.1.7-3.99,1.78-5.69,3.22-2.61,2.23-4.4,4.82-5.37,7.78.01-3.78.03-6.69.03-6.97.02-.83.17-1.52.46-2.06.42-.77,1-1.22,1.76-1.48.77-.26,1.47-.36,2.17-.42.18,0,.32-.14.32-.32s-.14-.32-.32-.32h-24.34c-.18,0-.32.14-.32.32s.14.32.32.32c1.53.13,2.71.45,3.53,1.01.82.56,1.38,1.29,1.7,2.18.26.67.4,1.59.43,2.76.03,1.17.05,2.39.05,3.67v16.04c0,.18-.15.33-.33.33-.1,0-.19-.05-.25-.12,0,0,0,0,0,0L70.11.72h0c-.12-.15-.31-.24-.51-.24h-10.22c-.18,0-.32.14-.32.32s.14.32.32.32h0c.53,0,1.05,0,1.61.15.56.14,1.08.38,1.56.72.48.34.9.8,1.25,1.39.35.59.58,1.35.67,2.28,0,.14,0,.75.02,1.68-.49-.72-1.02-1.4-1.62-2.04-1.5-1.62-3.34-2.9-5.5-3.86-2.16-.96-4.6-1.44-7.32-1.44-2.5,0-4.87.41-7.13,1.22-2.26.82-4.22,1.98-5.9,3.5-1,.9-1.87,1.93-2.63,3.07.23-.49.45-.93.65-1.32.39-.74.72-1.36,1-1.85.28-.49.53-.86.75-1.12.22-.26.38-.44.5-.56.12-.16.55-.47,1.3-.94.75-.47,1.64-.76,2.61-.88.18,0,.32-.14.32-.32s-.14-.32-.32-.32h-13.01c-.18,0-.32.14-.32.32s.14.32.32.32c.49.01,1,.07,1.61.21.61.14,1.18.33,1.73.59.55.26,1,.58,1.35.97.35.39.5.88.49,1.47-.03,1.36-.23,2.08-.66,3.12-1.66,4.02-7.38,17.26-8.74,20.41-.05.11-.16.18-.29.18s-.23-.07-.28-.17c-3.58-7.88-9.25-20.4-9.63-21.34-.53-1.31-.8-2.15-.83-2.5-.05-.59.1-1.08.46-1.47.36-.39.78-.7,1.26-.91.48-.22.96-.36,1.44-.44.48-.08.72-.11.94-.12h0c.18,0,.32-.14.32-.32s-.14-.32-.32-.32H.32c-.18,0-.32.14-.32.32s.14.32.32.32c0,0,0,0,0,0,.86.04,1.64.19,2.22.44.58.26,1.08.56,1.5.91.42.35.76.71,1.01,1.06.25.35.45.65.58.88.26.47.52.92.76,1.35.24.43.49.88.73,1.35.25.47.51.98.78,1.53.27.55.57,1.2.9,1.94.82,1.78,7.08,15.35,11.11,24.06h0c.11.23.34.39.61.39h1.85c.27,0,.51-.16.61-.4h0s0,0,0,0c0,0,0,0,0-.01,1.1-2.63,7.05-16.88,7.96-19,.37-.87.74-1.71,1.09-2.52-.35,1.44-.53,2.98-.53,4.61,0,2.59.47,4.97,1.42,7.13.94,2.16,2.23,4.02,3.86,5.57,1.63,1.55,3.54,2.75,5.71,3.6,2.18.85,4.48,1.27,6.91,1.27s4.79-.43,6.98-1.3c2.19-.86,4.11-2.1,5.76-3.7.86-.84,1.63-1.76,2.31-2.76-.01,1.04-.03,1.74-.05,1.94-.13,1.31-.42,2.3-.86,2.98-.45.7-1.06,1.21-1.82,1.51-.77.3-1.53.41-2.3.43-.18,0-.32.14-.32.32s.14.32.32.32h12.21c.18,0,.32-.14.32-.32s-.14-.32-.32-.32c-1.32-.07-2.34-.26-3.1-.63-.75-.37-1.3-.92-1.66-1.66-.32-.64-.52-1.62-.6-2.93-.08-1.31-.12-2.78-.12-4.42v-.38c.89-2.11,1.34-4.4,1.34-6.87,0-2.3-.4-4.51-1.2-6.62-.05-.12-.1-.24-.14-.35v-5.14c0-.18.15-.32.33-.32.1,0,.16.01.25.12,3.8,4.55,20.72,25.13,24.52,29.61h0c.12.14.3.23.5.24h0s1.46,0,1.46,0c.37,0,.68-.3.68-.68,0,0-.03-28.23,0-29.66h0c0-1.96,1.59-3.55,3.55-3.55s3.55,1.59,3.55,3.55h0v25.91c0,1.28-.29,1.77-.55,2.06-.48.54-1.06.96-1.75,1.25-.69.29-1.43.4-2.23.46-.18,0-.32.14-.32.32s.14.32.32.32h14.4c.18,0,.32-.14.32-.32s-.14-.32-.32-.32c-.7,0-1.42-.07-2.26-.36-.83-.29-1.44-.7-1.82-1.25-.26-.35-.4-.96-.43-1.82-.01-.31,0-3.63,0-7.79.09.28.19.56.3.83.75,1.92,1.78,3.62,3.07,5.11,1.3,1.49,2.81,2.74,4.54,3.74,1.73,1.01,3.57,1.72,5.52,2.14,0,0,3.53.71,6.82-.05.38-.07.76-.15,1.14-.24.53.81,2.21,2.86,5.61,2.66,4.26-.24,6.47-3.81,6.47-3.81.03-.05.06-.11.06-.17,0-.18-.15-.33-.33-.33-.1,0-.19.05-.25.13,0,0,.11-.11,0,0-.16.15-.97,1.23-3.23,1.55-1.94.27-3.08-.92-3.59-1.85.01,0,.02-.01.03-.02,1.82-1.01,3.4-2.27,4.73-3.79,1.33-1.52,2.38-3.26,3.14-5.21.48-1.23.81-2.52.99-3.87-.01,1.19-.02,2.18-.02,2.96,0,.38.02.97.07,1.75.05.79.21,1.65.48,2.59.27.94.69,1.9,1.25,2.88.56.98,1.35,1.87,2.38,2.69,1.02.82,2.33,1.46,3.91,1.94,1.58.48,3.53.72,5.83.72s5.26-.25,6.86-.74c1.6-.5,2.91-1.17,3.94-2.02,1.02-.85,1.82-1.79,2.38-2.83.56-1.04.97-2.08,1.22-3.12.26-1.04.41-2.02.46-2.95.05-.93,0-19.56,0-20.23h0c0-.8.65-1.44,1.44-1.44s1.44.65,1.44,1.44h0c.02.56.07,13.99.07,13.99v2.78c0,.96-.11,8.18-.14,8.71-.03.53-.09,1.03-.17,1.51-.08.48-.17.9-.26,1.27-.1.37-.22.65-.38.84-.45.51-1.02.91-1.7,1.2-.69.29-1.43.46-2.23.46h0c-.18,0-.32.14-.32.32s.14.32.32.32h27.84s0,0,0,0c.74,0,1.35-.53,1.48-1.22l1.95-8.33h0s.02-.06.02-.1Zm-138.67-1.89c-.5,1.95-1.24,3.7-2.23,5.26-.99,1.56-2.23,2.83-3.72,3.82-1.49.99-3.24,1.48-5.26,1.48s-3.78-.45-5.3-1.34c-1.52-.9-2.78-2.08-3.79-3.57-1.01-1.48-1.77-3.2-2.28-5.14-.51-1.95-.77-3.97-.77-6.07s.23-3.99.7-5.95c.46-1.96,1.18-3.71,2.16-5.26.98-1.54,2.22-2.8,3.74-3.77,1.52-.97,3.32-1.46,5.4-1.46s3.82.49,5.33,1.46c1.5.97,2.76,2.24,3.77,3.8,1.01,1.56,1.76,3.3,2.26,5.21.5,1.92.74,3.81.74,5.7s-.25,3.89-.74,5.84Zm74.12-.24c-.43,1.95-1.12,3.72-2.06,5.32-.94,1.6-2.18,2.91-3.7,3.94-1.52,1.03-3.37,1.54-5.54,1.54-1.86,0-3.54-.45-5.04-1.36-1.5-.91-2.78-2.11-3.84-3.62-1.06-1.5-1.86-3.23-2.42-5.18-.56-1.95-.84-3.97-.84-6.06s.23-3.97.7-5.92c.46-1.95,1.18-3.69,2.16-5.23.98-1.53,2.22-2.79,3.74-3.75,1.52-.97,3.32-1.45,5.4-1.45s3.82.48,5.33,1.45c1.5.97,2.76,2.23,3.77,3.78,1.01,1.55,1.76,3.28,2.26,5.18.5,1.9.74,3.79.74,5.67s-.22,3.74-.65,5.69Z"/>
      <path class="cls-1" d="m152.81,45.17c0,.26-.09.48-.28.67-.19.19-.41.28-.68.28s-.48-.09-.67-.28c-.19-.19-.28-.41-.28-.67,0-.17.04-.33.13-.48.09-.15.2-.26.35-.35s.3-.13.47-.13.33.04.48.13c.15.08.26.2.35.35.09.15.13.31.13.47Z"/>
      <g>
        <path class="cls-1" d="m159.75,47.44h-2.25v-.32c.19,0,.33-.01.41-.04.09-.03.13-.09.13-.19,0-.07-.01-.14-.04-.21l-.23-.56h-1.55l-.12.31c-.07.17-.1.3-.1.38,0,.14.05.23.16.27.11.04.24.06.38.06v.32h-1.64v-.32c.13,0,.24-.02.33-.07.09-.05.18-.14.26-.28.08-.14.17-.33.27-.58l1.37-3.6h.33l1.45,3.71c.11.26.18.44.23.53.05.09.12.16.2.21.09.05.21.08.37.08v.32Zm-2.1-1.68l-.66-1.66-.63,1.66h1.28Z"/>
        <path class="cls-1" d="m164.28,45.87l-.04,1.57h-4.25v-.32c.29,0,.48-.04.57-.13.08-.08.13-.23.13-.44v-3c0-.14-.01-.24-.04-.32-.03-.08-.09-.14-.19-.18-.1-.04-.25-.07-.46-.07v-.32h3.96l.06,1.24h-.32c-.07-.27-.16-.47-.25-.59-.09-.12-.2-.19-.32-.22-.12-.03-.3-.04-.53-.04h-.89v1.68h.49c.17,0,.29-.01.37-.04.08-.03.14-.09.17-.17.03-.08.06-.21.07-.39h.34v1.59h-.32c0-.18-.03-.31-.07-.39-.04-.08-.1-.14-.18-.17s-.2-.04-.37-.04h-.49v1.12c0,.19,0,.32.01.41,0,.09.03.16.08.22.04.06.11.1.2.12.09.03.22.04.4.04h.38c.16,0,.32-.02.46-.06.15-.04.29-.15.43-.32.14-.17.24-.44.3-.8h.33Z"/>
        <path class="cls-1" d="m168.35,46.07c0,.15-.03.3-.09.47-.06.17-.16.32-.29.47-.13.15-.29.27-.48.37-.19.09-.42.14-.68.14s-.5-.05-.75-.17c-.25-.11-.46-.27-.63-.49-.07.17-.12.33-.14.48h-.32v-1.63h.32c.06.23.14.45.24.66.1.21.25.38.44.53.19.15.42.22.69.22.24,0,.43-.07.57-.2.14-.13.22-.3.22-.5,0-.11-.02-.21-.07-.3-.04-.08-.11-.16-.19-.23s-.2-.14-.35-.21c-.15-.08-.31-.16-.5-.24-.29-.14-.52-.27-.71-.41-.19-.14-.33-.27-.42-.4-.09-.13-.16-.25-.2-.37-.04-.12-.05-.24-.05-.36,0-.21.06-.42.17-.63.11-.21.28-.38.5-.51.22-.13.48-.2.77-.2.22,0,.43.05.64.15.2.1.38.24.52.41.04-.1.08-.24.12-.41h.33v1.33h-.33c-.23-.72-.64-1.09-1.22-1.09-.21,0-.38.06-.51.17-.13.11-.19.25-.19.43,0,.14.04.26.12.36.08.1.18.19.31.26.13.07.34.18.63.31.35.17.63.31.82.43.2.12.37.28.5.46.14.19.21.41.21.67Z"/>
        <path class="cls-1" d="m173.57,44.02h-.33c-.03-.3-.1-.51-.2-.65-.1-.14-.21-.23-.32-.26-.11-.03-.25-.05-.4-.05h-.6v3.49c0,.14.01.25.04.32.03.08.09.14.2.18.1.04.25.06.45.06v.32h-2.39v-.32c.29,0,.48-.04.57-.13.08-.08.13-.23.13-.44v-3.49h-.51c-.2,0-.36.02-.5.05-.13.03-.25.12-.35.26-.1.14-.16.36-.17.66h-.33v-1.35h4.71v1.35Z"/>
        <path class="cls-1" d="m179.51,47.44h-2.35v-.32c.19,0,.34-.02.44-.06.1-.04.16-.1.19-.18.03-.08.04-.18.04-.32v-1.43h-2.21v1.43c0,.2.04.34.12.43.08.09.27.13.56.13v.32h-2.36v-.32c.19,0,.33-.02.43-.06.1-.04.16-.1.19-.18.03-.08.04-.18.04-.32v-3c0-.13-.01-.24-.04-.31-.03-.08-.09-.14-.19-.18-.1-.04-.24-.07-.44-.07v-.32h2.36v.32c-.29,0-.48.04-.56.13-.08.09-.12.23-.12.43v1.17h2.21v-1.17c0-.13-.01-.24-.04-.31-.03-.08-.09-.14-.18-.18-.1-.04-.25-.07-.45-.07v-.32h2.35v.32c-.2,0-.35.02-.44.07-.1.05-.16.1-.18.18-.03.08-.04.18-.04.31v3c0,.13.01.23.04.31.02.08.09.14.18.18.1.05.25.07.45.07v.32Z"/>
        <path class="cls-1" d="m184.15,45.87l-.04,1.57h-4.25v-.32c.29,0,.48-.04.57-.13.08-.08.13-.23.13-.44v-3c0-.14-.01-.24-.04-.32-.03-.08-.09-.14-.19-.18-.1-.04-.25-.07-.46-.07v-.32h3.96l.06,1.24h-.32c-.07-.27-.16-.47-.25-.59-.09-.12-.2-.19-.32-.22-.12-.03-.3-.04-.53-.04h-.89v1.68h.49c.17,0,.29-.01.37-.04.08-.03.14-.09.17-.17.03-.08.06-.21.07-.39h.34v1.59h-.32c0-.18-.03-.31-.07-.39-.04-.08-.1-.14-.18-.17-.08-.03-.2-.04-.37-.04h-.49v1.12c0,.19,0,.32.01.41,0,.09.03.16.08.22.04.06.11.1.2.12.09.03.22.04.4.04h.38c.16,0,.32-.02.46-.06.15-.04.29-.15.43-.32.14-.17.24-.44.3-.8h.33Z"/>
        <path class="cls-1" d="m189.32,44.02h-.33c-.03-.3-.1-.51-.2-.65-.1-.14-.21-.23-.32-.26-.11-.03-.25-.05-.4-.05h-.6v3.49c0,.14.01.25.04.32.03.08.09.14.2.18.1.04.25.06.45.06v.32h-2.39v-.32c.29,0,.48-.04.57-.13.08-.08.13-.23.13-.44v-3.49h-.51c-.2,0-.36.02-.5.05-.13.03-.25.12-.35.26-.1.14-.16.36-.17.66h-.33v-1.35h4.71v1.35Z"/>
        <path class="cls-1" d="m192.07,47.44h-2.42v-.32c.2,0,.35-.02.46-.06.1-.04.17-.1.2-.17.03-.08.05-.19.05-.33v-3c0-.21-.04-.35-.13-.44-.09-.08-.28-.13-.58-.13v-.32h2.42v.32c-.2,0-.35.02-.46.06-.1.04-.17.1-.2.17-.03.08-.05.19-.05.33v3c0,.14.02.24.05.32.03.08.1.14.2.18.1.04.25.06.47.06v.32Z"/>
        <path class="cls-1" d="m197.09,47.39h-.33c-.05-.2-.13-.38-.24-.54-.18.19-.38.34-.61.48s-.54.2-.93.2c-.43,0-.83-.1-1.19-.31-.37-.21-.66-.5-.88-.87-.22-.37-.33-.8-.33-1.26,0-.33.06-.65.18-.95s.29-.57.51-.8c.22-.23.48-.41.78-.54.3-.13.64-.2,1-.2.6,0,1.09.19,1.48.58.05-.1.1-.25.15-.44h.32l.06,1.75h-.34c-.06-.3-.17-.56-.33-.79s-.35-.41-.57-.53c-.22-.12-.45-.18-.69-.18-.27,0-.51.07-.72.22-.21.15-.38.37-.5.67-.12.3-.18.67-.18,1.12s.05.8.15,1.09c.1.29.23.51.37.66.15.15.3.25.45.3.15.05.29.08.42.08.29,0,.55-.08.78-.23.23-.15.42-.35.57-.59.15-.24.25-.47.3-.7h.34v1.8Z"/>
      </g>
    </g>
  </g>
</svg>